<?xml version="1.0" encoding="utf-8"?>
<!-- Generator: Adobe Illustrator 22.1.0, SVG Export Plug-In . SVG Version: 6.00 Build 0)  -->
<svg version="1.1" xmlns="http://www.w3.org/2000/svg" xmlns:xlink="http://www.w3.org/1999/xlink" x="0px" y="0px"
	 viewBox="0 0 1000 1000" style="enable-background:new 0 0 1000 1000;" xml:space="preserve">
<style type="text/css">
	.st0{fill:#2C8DFF;stroke:#2CABFF;stroke-width:15;stroke-miterlimit:10;}
	.st1{fill:#FFFFFF;stroke:#2CABFF;stroke-width:15;stroke-miterlimit:10;}
	.st2{fill:#FFFFFF;}
	.st3{opacity:0;fill:#FFFFFF;stroke:#00A99D;stroke-width:15;stroke-miterlimit:10;}
</style>
<g id="Laag_2">
</g>
<g id="Laag_1">
	<polygon class="st0" points="466.7,352.4 373.9,245.5 280.8,245.5 280.8,245.3 280.7,245.3 280.7,245 280.2,245 280.2,86.5 
		276.2,81.8 232.6,35.1 214.9,54 186.3,88 186.3,106.2 186.9,106.5 186.9,106.7 187,106.8 187,113 186.8,113 186.8,533.9 
		186.8,553.5 186.7,553.5 186.7,554.5 186.3,554.5 186.3,554.7 186.8,555.3 186.8,556.5 280,663.8 280,649.3 280.4,649.7 
		280.4,554.5 280.4,554.5 280.4,419.1 280.6,419.1 280.6,412.8 279.8,412.4 279.8,394.4 279.9,394.4 279.9,394.1 308.5,360.1 
		326.2,341.1 326.7,341.7 326.8,341.6 367.7,385.5 367.7,385.6 369.8,387.9 373.8,392.6 373.8,477.7 373.8,551.1 373.8,557.4 
		466.4,557.4 466.4,551.6 466.7,551.6 	"/>
	<polygon class="st1" points="560.3,658.5 467.5,551.6 374.4,551.6 374.4,551.4 374.3,551.4 374.3,551.1 373.8,551.1 373.8,392.6 
		369.8,387.9 326.2,341.1 308.5,360.1 279.9,394.1 279.9,412.2 280.5,412.6 280.5,412.8 280.6,412.8 280.6,419.1 280.4,419.1 
		280.4,839.9 280.4,859.6 280.3,859.6 280.3,860.6 279.9,860.6 279.9,860.8 280.4,861.3 280.4,862.5 373.6,969.9 373.6,955.4 
		374,955.8 374,860.6 374,860.6 374,725.2 374.2,725.2 374.2,718.9 373.4,718.4 373.4,700.5 373.5,700.5 373.5,700.2 402.1,666.2 
		419.8,647.2 420.3,647.7 420.4,647.7 461.3,691.6 461.3,691.7 463.4,694 467.4,698.7 467.4,783.8 467.4,857.2 467.4,863.5 
		559.9,863.5 559.9,857.6 560.3,857.6 	"/>
	<polygon class="st1" points="747.2,347.3 654.4,240.5 561.2,240.5 561.2,240.2 561.1,240.2 561.1,240 560.7,240 560.7,81.5 
		556.7,76.8 513,30 495.3,49 466.7,83 466.7,101.1 467.3,101.5 467.3,101.6 467.5,101.7 467.5,108 467.3,108 467.3,528.8 
		467.3,548.5 467.2,548.5 467.2,549.4 466.7,549.4 466.7,549.7 467.3,550.2 467.3,551.4 560.5,658.8 560.5,644.3 560.9,644.7 
		560.9,549.4 560.9,549.4 560.9,414 561.1,414 561.1,407.8 560.3,407.3 560.3,389.4 560.3,389.4 560.3,389 589,355.1 606.7,336.1 
		607.2,336.6 607.2,336.6 648.1,380.5 648.1,380.6 650.3,382.9 654.3,387.5 654.3,472.7 654.3,546.1 654.3,552.3 746.8,552.3 
		746.8,546.5 747.2,546.5 	"/>
	<polygon class="st0" points="840.7,653.4 747.9,546.5 654.8,546.5 654.8,546.3 654.7,546.3 654.7,546 654.3,546 654.3,387.5 
		650.2,382.9 606.6,336.1 588.9,355.1 560.3,389 560.3,407.2 560.9,407.6 560.9,407.7 561.1,407.8 561.1,414 560.9,414 560.9,834.9 
		560.9,854.5 560.8,854.5 560.8,855.5 560.3,855.5 560.3,855.7 560.9,856.3 560.9,857.5 654.1,964.8 654.1,950.4 654.5,950.8 
		654.5,855.5 654.4,855.5 654.4,720.1 654.7,720.1 654.7,713.8 653.9,713.4 653.9,695.5 653.9,695.4 653.9,695.1 682.5,661.1 
		700.2,642.1 700.7,642.7 700.8,642.6 741.7,686.5 741.7,686.7 743.9,688.9 747.9,693.6 747.9,778.7 747.9,852.1 747.9,858.4 
		840.4,858.4 840.4,852.6 840.7,852.6 	"/>
	<polygon class="st2" points="475.1,481.4 475.1,558.7 332.5,558.7 332.5,632.4 475.1,632.4 475.1,845.6 553,845.6 553,481.4 	"/>
	<rect x="472.7" y="500.8" class="st3" width="35.8" height="76.6"/>
</g>
</svg>
