<?xml version="1.0" standalone="no"?>
<!DOCTYPE svg PUBLIC "-//W3C//DTD SVG 20010904//EN"
 "http://www.w3.org/TR/2001/REC-SVG-20010904/DTD/svg10.dtd">
<svg version="1.0" xmlns="http://www.w3.org/2000/svg"
 width="1000.000000pt" height="1000.000000pt" viewBox="0 0 1000.000000 1000.000000"
 preserveAspectRatio="xMidYMid meet">
<metadata>
Created by potrace 1.11, written by Peter Selinger 2001-2013
</metadata>
<g transform="translate(0.000000,1000.000000) scale(0.100000,-0.100000)"
fill="#000000" stroke="none">
<path d="M4858 9771 c-70 -75 -194 -217 -275 -313 l-147 -176 3 -1233 c2 -998
0 -1232 -10 -1222 -7 7 -182 207 -389 445 l-375 433 -445 5 -445 5 -3 766 -2
766 -63 69 c-172 191 -502 539 -512 542 -15 4 -222 -220 -411 -445 l-154 -182
0 -2384 0 -2385 37 -45 c112 -137 421 -486 441 -498 13 -8 124 -131 247 -274
l225 -259 0 -913 c0 -602 -3 -913 -10 -913 -12 0 -13 -120 -1 -152 9 -24 1105
-1291 1121 -1296 7 -2 10 519 10 1460 l0 1464 125 148 c159 189 233 268 245
264 5 -2 92 -93 194 -203 l186 -200 0 -852 0 -853 518 0 517 0 505 -581 505
-582 7 84 c3 46 6 702 6 1457 l0 1373 145 172 c168 199 199 230 222 225 10 -1
98 -88 196 -193 l178 -190 1 -857 0 -858 565 0 565 0 0 1089 0 1089 -39 49
c-21 26 -233 271 -470 543 l-431 495 -1 890 c0 490 0 936 1 992 l2 101 -488
561 -488 561 -443 0 -443 0 0 768 0 767 -286 308 c-157 169 -291 307 -298 307
-6 -1 -68 -63 -138 -139z m331 -360 l181 -194 2 -826 3 -826 497 -5 497 -5
435 -500 435 -500 1 -927 0 -928 -365 0 -365 0 0 768 0 767 -287 309 -288 309
-103 -109 c-57 -60 -184 -203 -283 -319 l-179 -210 0 -2342 0 -2343 -365 0
-365 0 0 794 0 794 -32 39 c-80 95 -532 573 -543 573 -15 0 -254 -260 -396
-432 -90 -108 -119 -137 -139 -138 l-25 0 3 -1183 c2 -650 -1 -1216 -5 -1257
l-8 -74 -362 417 -363 417 0 2306 0 2305 154 182 c84 100 165 193 180 206 l27
25 23 -25 c13 -13 99 -104 190 -203 l166 -178 0 -809 0 -809 565 0 565 0 0
2361 -1 2361 123 146 c142 170 228 264 239 260 4 -2 89 -90 188 -197z"/>
</g>
</svg>
